<svg viewBox="0 0 64 64" xmlns="http://www.w3.org/2000/svg">
<g fill="currentColor" stroke="currentColor" stroke-linejoin="round" stroke-linecap="round" transform="translate(-3, -3)">
    <path id="wrist" d="M 44.537 63.747 L 28.476 64 L 26.569 61.137 L 26.87 59 L 44.537 59 L 44.537 63.747 Z"/>
    <path id="pad" d="M 38.414 56.319 L 39.016 45.98 L 31.387 33.934 L 19.04 33.131 L 28.777 48.69 L 28.978 50.999 L 26.569 57.323 L 38.414 56.319 Z" />
    <path id="palm" d="M 39.819 57.022 L 40.622 45.377 L 34.298 36.042 L 39.016 36.444 L 44.537 41.563 L 50.259 37.347 L 48.251 46.783 L 44.537 51.802 L 44.537 57.323 L 39.819 57.022 Z" />
    <path id="thumb1" d="M 19.04 33.131 L 26.569 22.792 L 29.078 28.714 L 28.075 31.625 L 26.866 31.751 L 26.658 33.131 L 19.04 33.131 Z" />
    <path id="thumb2" d="M 26.915 22.556 L 37.461 27.22 L 37.372 28.705 L 36.273 29.032 L 36.451 31.408 L 34.298 31.973 L 32.084 31.765 L 29.529 28.794 L 26.588 22.792 L 26.915 22.556 Z" />
    <path id="fore" d="M 28.242 21.386 L 32.401 16.509 L 37.461 18.691 L 33.286 23.88 L 28.409 21.605 L 28.533 21.311 L 28.242 21.386 Z" />
    <path id="middle" d="M 39.007 28.831 L 39.016 26.338 L 35.148 24.409 L 39.016 19.464 L 43.067 21.997 L 39.007 28.831 Z" />
    <path id="ring" d="M 37.921 34.032 L 43.791 24.826 L 47.489 27.52 L 41.379 36.042 L 37.921 34.032 Z" />
    <path id="pinkie" d="M 42.946 37.624 L 49.137 29.303 L 52.916 33.131 L 44.916 39.474 L 42.946 37.624 Z" />
  </g>
  <circle 
    fill = "none"
    stroke = "currentColor"
    stroke-width ="4"
    cx="32" 
    cy="32" 
    r="24" />
</svg>