<svg viewBox="0 0 64 64" xmlns="http://www.w3.org/2000/svg">
<g fill="currentColor" stroke="currentColor">
  <path id="hammer"
    d="M 28.328 15.9 L 17.312 27.454 L 22.926 33.275 L 28.568 27.485 L 52.622 52.993 L 56.215 49.221 L 33.32 22.437 L 38.369 17.743 L 35.784 15.248 L 28.328 15.9 Z"></path>
  <path id="sickle-handle"
    d="M 7.247 51.501 L 17.312 43.053 L 19.385 39.364 L 22.717 39.483 L 27.833 44.719 L 24.62 48.646 L 19.98 44.362 L 10.579 55.19 L 7.247 51.501 Z"></path>
  <path id="sickle-blade"
    stroke-linejoin="round"
    stroke-linecap="round"
  d="M 27.727 44.615 L 34.789 47.632 L 41.096 45.438 L 48.775 37.965 L 50.558 33.234 L 50.969 27.407 L 49.324 22.265 L 46.17 16.506 L 41.85 11.706 L 35.954 6.359 L 40.753 8.278 L 43.976 9.992 L 49.186 14.174 L 52.409 18.288 L 54.466 22.95 L 56.215 28.709 L 56.215 36.32 L 54.123 42.079 L 51.929 45.027 L 48.569 48.661 L 44.524 51.403 L 41.302 52.993 L 36.297 52.993 L 29.921 51.883 L 26.424 50.375 L 24.573 48.386 L 27.727 44.615 Z"></path>
</svg>