<svg version="1.0" xmlns="http://www.w3.org/2000/svg" viewBox="0 0 64 64" >
    <g 
        id="ear-1"
        transform="translate(12,60) scale(0.003,-0.004)"
        fill="currentColor" 
        stroke="none">
        <path d="M3191 12599 c-5 -308 -62 -726 -127 -927 -25 -78 -31 -87 -80 -124 -388 -293 -439 -1336 -90 -1861 43 -65 144 -162 193 -185 l35 -17 -7 -4705 c-5 -3910 -4 -4709 7 -4730 34 -64 108 -64 140 0 17 33 18 280 18 4728 l0 4692 28 11 c91 33 182 113 240 211 124 209 183 470 183 800 -1 342 -71 635 -205 861 -49 81 -123 167 -170 196 -29 19 -37 32 -54 99 -47 177 -78 446 -101 887 -6 118 -8 131 -10 64z"/>
        <path d="M1470 11137 c0 -4 16 -39 35 -77 113 -224 276 -645 321 -827 l27 -112 -27 -60 c-96 -215 -69 -568 70 -921 166 -417 447 -752 723 -862 83 -33 208 -32 275 2 87 45 157 151 187 285 19 85 17 318 -5 427 -74 384 -261 751 -511 1004 -147 149 -285 233 -414 250 -47 6 -56 12 -130 89 -150 156 -326 412 -520 755 -17 30 -31 52 -31 47z"/>
        <path d="M4889 11088 c-36 -71 -147 -255 -224 -373 -111 -168 -191 -271 -287 -370 -85 -89 -88 -91 -150 -102 -355 -61 -762 -600 -899 -1191 -29 -126 -37 -383 -15 -484 22 -100 65 -187 117 -237 239 -230 692 57 979 620 144 282 213 541 213 794 0 142 -16 231 -58 318 -24 51 -24 52 -9 127 32 154 145 461 271 735 87 189 94 205 88 205 -2 0 -14 -19 -26 -42z"/>
        <path d="M1064 9293 c142 -188 383 -568 465 -732 71 -141 74 -156 56 -232 -78 -330 156 -872 540 -1254 123 -122 247 -212 380 -276 121 -57 186 -73 291 -67 494 24 355 886 -240 1484 -228 229 -440 348 -641 361 -107 6 -131 18 -273 133 -116 93 -392 372 -516 523 -93 111 -124 141 -62 60z"/>
        <path d="M5290 9258 c-219 -263 -486 -522 -656 -637 -56 -37 -67 -41 -125 -41 -383 -1 -910 -493 -1124 -1050 -65 -166 -79 -240 -80 -405 0 -147 1 -151 31 -215 38 -80 82 -126 152 -158 48 -22 63 -24 150 -20 107 5 157 20 278 80 395 195 801 745 890 1206 18 96 18 253 -1 324 -17 66 -17 66 69 238 80 158 305 511 442 693 51 67 35 58 -26 -15z"/>
        <path d="M1073 7720 c250 -349 440 -661 508 -832 19 -49 19 -54 4 -119 -91 -401 260 -1078 738 -1423 96 -69 259 -149 338 -166 85 -19 204 -10 262 20 253 128 225 595 -63 1070 -124 204 -328 434 -496 557 -164 120 -344 193 -479 193 -67 0 -98 15 -220 109 -94 72 -366 342 -498 496 -146 171 -152 177 -94 95z"/>
        <path d="M5290 7698 c-175 -211 -424 -461 -570 -575 -117 -91 -142 -103 -212 -103 -228 -1 -520 -177 -763 -462 -279 -327 -445 -699 -445 -1000 0 -162 47 -277 137 -337 68 -45 104 -54 207 -49 190 10 385 114 607 326 280 266 508 669 559 985 15 90 9 280 -10 319 -15 32 -12 42 68 203 83 168 305 518 448 708 51 67 35 58 -26 -15z"/>
        <path d="M1073 6160 c245 -341 442 -664 508 -832 19 -49 19 -54 4 -119 -96 -422 295 -1141 795 -1461 153 -98 266 -138 391 -138 138 0 223 50 279 163 149 304 -74 901 -495 1323 -134 135 -247 220 -380 285 -113 55 -201 79 -292 79 -57 0 -67 4 -135 49 -40 27 -98 70 -128 96 -104 88 -332 320 -452 460 -147 171 -153 177 -95 95z"/>
        <path d="M5234 6073 c-143 -167 -387 -412 -494 -494 -139 -108 -161 -119 -232 -119 -442 0 -1065 -664 -1187 -1267 -25 -120 -27 -265 -6 -345 28 -109 102 -195 194 -226 19 -7 71 -12 116 -12 195 0 414 119 646 350 69 69 146 152 171 185 189 251 321 523 364 753 19 100 15 296 -7 348 -12 30 -9 39 53 167 92 188 303 525 464 740 62 82 31 51 -82 -80z"/>
        <path d="M1073 4600 c257 -361 441 -662 508 -832 19 -49 19 -54 4 -119 -91 -403 264 -1086 742 -1428 159 -114 309 -171 445 -171 75 0 98 4 143 25 252 120 239 564 -30 1029 -266 462 -685 795 -1001 796 -54 0 -68 5 -125 41 -152 99 -419 355 -627 604 -100 120 -115 133 -59 55z"/> 
        <path d="M5234 4513 c-143 -168 -387 -412 -494 -495 -141 -108 -153 -114 -255 -121 -263 -17 -575 -231 -827 -568 -235 -315 -358 -621 -358 -891 0 -202 73 -332 213 -378 94 -30 264 -3 396 64 158 81 381 270 512 436 196 249 339 536 384 771 17 94 19 256 4 314 -6 22 -12 52 -12 68 0 34 92 224 180 372 66 110 272 418 339 508 62 82 31 51 -82 -80z"/>
    </g>
    <use href="#ear-1" transform="translate(20, 0)" />
</svg>
